# File created by Blade
# Date/Time:  Mon Sep 22 16:09:39 2014
# Frame Rate: 120.000 fps
#------------------------------------------------------
:FULLY-SPECIFIED
:DEGREES
1493
root 2.122657 37.010119 2.355818 1.193504 -7.806260 1.083524
RightUpLeg 6.200450 -3.413848 -1.558637
RightLeg -5.031884 -0.000000 0.000000
RightFoot -12.479039 -13.914265 15.312551
RightToeBase 14.948702 -0.000000 -0.000000
LeftUpLeg 5.233536 4.238784 2.877075
LeftLeg -1.749252 -0.000000 0.000000
LeftFoot -10.900257 14.651013 -18.121632
LeftToeBase 9.499008 -0.000000 -0.000000
Spine -1.476532 7.018241 -0.787956
RightShoulder 13.522494 -21.933907 -13.646658
RightArm 49.588573 -41.416523 47.846638
RightForeArm 93.686585 -0.000000 84.184295
RightHand -4.875237 -0.000000 -11.219996
RightHandThumb1 -24.326973 -0.000000 -32.862282
LeftShoulder -18.618598 37.539401 -3.390413
LeftArm 43.296126 22.394383 -57.712032
LeftForeArm 21.250007 -0.000000 27.055725
LeftHand -12.538584 -0.000000 -12.578452
LeftHandThumb1 -26.253704 0.000000 33.147579
Head 8.217727 -3.666423 4.203773
1494
root 2.099269 37.006088 2.358960 1.154421 -8.264528 0.979856
RightUpLeg 6.205317 -3.259247 -1.451277
RightLeg -5.044026 -0.000000 0.000000
RightFoot -12.363306 -13.651075 15.211876
RightToeBase 14.995751 -0.000000 -0.000000
LeftUpLeg 5.345350 4.412485 2.986823
LeftLeg -1.692462 -0.000000 0.000000
LeftFoot -11.115057 14.920602 -18.167314
LeftToeBase 9.520448 -0.000000 -0.000000
Spine -1.426137 7.761761 -0.693462
RightShoulder 14.248001 -21.811980 -13.498088
RightArm 51.416887 -43.008381 45.789377
RightForeArm 93.690248 -0.000000 82.678984
RightHand -4.842827 -0.000000 -11.899280
RightHandThumb1 -24.326973 -0.000000 -32.862282
LeftShoulder -18.322088 37.363900 -3.191051
LeftArm 43.378972 22.470000 -57.605974
LeftForeArm 21.358968 -0.000000 26.583896
LeftHand -12.373758 -0.000000 -12.512138
LeftHandThumb1 -26.253704 0.000000 33.147579
Head 8.070360 -3.951856 4.259600
1495
root 2.078381 36.999098 2.359626 1.113511 -8.651492 0.876934
RightUpLeg 6.193169 -3.226282 -1.355535
RightLeg -4.996371 -0.000000 0.000000
RightFoot -12.275433 -13.301000 15.113186
RightToeBase 14.992574 -0.000000 -0.000000
LeftUpLeg 5.449902 4.524308 3.093091
LeftLeg -1.646806 -0.000000 0.000000
LeftFoot -11.331473 15.164525 -18.220642
LeftToeBase 9.528149 -0.000000 -0.000000
Spine -1.323287 8.525200 -0.592770
RightShoulder 14.842860 -21.782198 -13.418459
RightArm 52.919585 -44.170651 44.148010
RightForeArm 93.188223 -0.000000 81.323511
RightHand -5.397965 -0.000000 -12.371537
RightHandThumb1 -24.326973 -0.000000 -32.862282
LeftShoulder -17.978586 37.097059 -2.935115
LeftArm 43.440363 22.555554 -57.531336
LeftForeArm 21.640401 -0.000000 26.133419
LeftHand -12.290684 -0.000000 -12.820112
LeftHandThumb1 -26.253704 0.000000 33.147579
Head 7.790630 -4.263125 4.343028
1496
root 2.066488 36.990445 2.359390 1.038338 -8.901114 0.792615
RightUpLeg 6.254777 -3.295481 -1.292709
RightLeg -5.004290 -0.000000 0.000000
RightFoot -12.211741 -12.962706 15.074801
RightToeBase 15.024894 -0.000000 -0.000000
LeftUpLeg 5.553738 4.440601 3.162951
LeftLeg -1.582233 -0.000000 0.000000
LeftFoot -11.570894 15.491478 -18.222072
LeftToeBase 9.540815 -0.000000 -0.000000
Spine -1.137867 9.221128 -0.484686
RightShoulder 15.273297 -21.890030 -13.347101
RightArm 54.382976 -44.964854 42.548005
RightForeArm 93.366402 0.000000 80.092561
RightHand -6.759883 0.000000 -12.233527
RightHandThumb1 -24.326973 -0.000000 -32.862282
LeftShoulder -17.687780 36.881187 -2.711555
LeftArm 43.648206 22.637284 -57.427847
LeftForeArm 22.114331 -0.000000 25.726209
LeftHand -12.405765 -0.000000 -12.795523
LeftHandThumb1 -26.253704 0.000000 33.147579
Head 7.393799 -4.572986 4.472119
1497
root 2.053990 36.980753 2.357937 0.996681 -9.108530 0.690365
RightUpLeg 6.314626 -3.290666 -1.200707
RightLeg -5.056382 -0.000000 0.000000
RightFoot -12.135365 -12.737407 15.032750
RightToeBase 15.046939 -0.000000 -0.000000
LeftUpLeg 5.621025 4.378623 3.248625
LeftLeg -1.521589 -0.000000 0.000000
LeftFoot -11.806274 15.788117 -18.162837
LeftToeBase 9.594465 -0.000000 -0.000000
Spine -0.968485 9.943391 -0.370897
RightShoulder 15.521857 -22.039833 -13.277279
RightArm 55.686698 -45.587927 41.016431
RightForeArm 93.269700 -0.000000 78.979881
RightHand -7.795812 -0.000000 -11.690394
RightHandThumb1 -24.326973 -0.000000 -32.862282
LeftShoulder -17.439780 36.711260 -2.468881
LeftArm 43.950784 22.689737 -57.327755
LeftForeArm 22.061845 -0.000000 25.320754
LeftHand -12.234772 -0.000000 -13.152715
LeftHandThumb1 -26.253704 0.000000 33.147579
Head 6.908681 -4.790159 4.736726
1498
root 2.039705 36.971187 2.353394 0.941958 -9.261095 0.570404
RightUpLeg 6.386603 -3.292226 -1.091059
RightLeg -5.094002 -0.000000 0.000000
RightFoot -12.076029 -12.527080 15.033614
RightToeBase 15.014763 -0.000000 -0.000000
LeftUpLeg 5.687625 4.284576 3.365593
LeftLeg -1.448929 -0.000000 0.000000
LeftFoot -12.034750 16.027781 -18.120329
LeftToeBase 9.605416 -0.000000 -0.000000
Spine -0.746840 10.624955 -0.246110
RightShoulder 15.651523 -22.079792 -13.227903
RightArm 56.438793 -46.066031 40.005402
RightForeArm 94.192143 0.000000 78.294036
RightHand -8.027205 -0.000000 -11.959617
RightHandThumb1 -24.326973 -0.000000 -32.862282
LeftShoulder -17.211797 36.555430 -2.206842
LeftArm 44.221946 22.731474 -57.298135
LeftForeArm 22.228523 -0.000000 25.043183
LeftHand -12.262762 -0.000000 -12.918578
LeftHandThumb1 -26.253704 0.000000 33.147579
Head 6.337283 -5.112944 5.030891
1499
root 2.032275 36.963070 2.348756 0.853738 -9.329771 0.466653
RightUpLeg 6.518820 -3.271456 -0.995161
RightLeg -5.173098 -0.000000 0.000000
RightFoot -12.023044 -12.439707 15.046492
RightToeBase 15.028723 -0.000000 -0.000000
LeftUpLeg 5.782999 4.075854 3.470105
LeftLeg -1.398714 -0.000000 0.000000
LeftFoot -12.246382 16.220293 -18.191564
LeftToeBase 9.657694 -0.000000 -0.000000
Spine -0.464882 11.087271 -0.090886
RightShoulder 15.826794 -22.034692 -13.328074
RightArm 56.445624 -46.302877 39.779796
RightForeArm 94.657364 -0.000000 77.892660
RightHand -9.607428 -0.000000 -11.260947
RightHandThumb1 -24.326973 -0.000000 -32.862282
LeftShoulder -17.171832 36.424506 -2.093615
LeftArm 44.476082 22.686393 -57.320208
LeftForeArm 22.330556 -0.000000 24.890142
LeftHand -12.392290 0.000000 -12.808275
LeftHandThumb1 -26.253704 0.000000 33.147579
Head 5.752279 -5.234232 5.316304
1500
root 2.030520 36.956690 2.344501 0.721998 -9.312070 0.385700
RightUpLeg 6.670662 -3.317876 -0.927729
RightLeg -5.192973 -0.000000 0.000000
RightFoot -12.001793 -12.376690 15.059446
RightToeBase 15.026241 -0.000000 -0.000000
LeftUpLeg 5.937037 3.755779 3.535076
LeftLeg -1.422207 -0.000000 0.000000
LeftFoot -12.401437 16.486516 -18.204521
LeftToeBase 9.669130 -0.000000 -0.000000
Spine -0.109809 11.394064 0.068331
RightShoulder 15.938647 -21.953113 -13.504028
RightArm 56.306185 -46.426467 39.663410
RightForeArm 94.957494 -0.000000 77.954177
RightHand -10.355119 -0.000000 -11.498560
RightHandThumb1 -24.326973 -0.000000 -32.862282
LeftShoulder -17.194748 36.325395 -2.020061
LeftArm 44.645680 22.524090 -57.472187
LeftForeArm 22.339286 -0.000000 24.868463
LeftHand -12.395540 -0.000000 -12.662024
LeftHandThumb1 -26.253704 0.000000 33.147579
Head 5.126521 -5.279722 5.595090
1501
root 2.030227 36.953845 2.340478 0.553422 -9.233218 0.323879
RightUpLeg 6.858030 -3.351570 -0.878546
RightLeg -5.196947 -0.000000 0.000000
RightFoot -12.000490 -12.370165 15.101359
RightToeBase 15.041178 -0.000000 -0.000000
LeftUpLeg 6.112213 3.476084 3.593131
LeftLeg -1.444681 -0.000000 0.000000
LeftFoot -12.475574 16.649049 -18.216611
LeftToeBase 9.663241 -0.000000 -0.000000
Spine 0.297547 11.526578 0.224129
RightShoulder 16.036786 -21.711360 -13.757805
RightArm 56.173617 -46.597427 39.578235
RightForeArm 95.027867 -0.000000 78.240851
RightHand -10.289454 -0.000000 -12.094899
RightHandThumb1 -24.326973 -0.000000 -32.862282
LeftShoulder -17.349523 36.344334 -2.062703
LeftArm 44.820454 22.283645 -57.631399
LeftForeArm 22.303165 -0.000000 25.038599
LeftHand -12.634214 -0.000000 -12.305472
LeftHandThumb1 -26.253704 0.000000 33.147579
Head 4.519833 -5.181840 5.870694
1502
root 2.033333 36.953943 2.338422 0.335112 -9.125249 0.294053
RightUpLeg 7.086244 -3.332503 -0.860000
RightLeg -5.185747 -0.000000 0.000000
RightFoot -12.026666 -12.459916 15.144428
RightToeBase 15.045998 -0.000000 -0.000000
LeftUpLeg 6.311908 3.292614 3.632133
LeftLeg -1.436126 -0.000000 0.000000
LeftFoot -12.502174 16.666853 -18.244578
LeftToeBase 9.719728 -0.000000 -0.000000
Spine 0.760596 11.583105 0.364819
RightShoulder 16.077637 -21.591939 -14.099900
RightArm 56.120316 -46.552692 39.592098
RightForeArm 94.731588 -0.000000 78.642244
RightHand -10.352974 0.000000 -12.614813
RightHandThumb1 -24.326973 -0.000000 -32.862282
LeftShoulder -17.478185 36.389881 -2.093861
LeftArm 44.859582 21.992570 -57.862282
LeftForeArm 22.008343 -0.000000 25.414263
LeftHand -12.825486 -0.000000 -12.135651
LeftHandThumb1 -26.253704 0.000000 33.147579
Head 3.945413 -5.132562 6.111347
1503
root 2.039346 36.957365 2.340983 0.093175 -8.968998 0.318560
RightUpLeg 7.332233 -3.354674 -0.891053
RightLeg -5.161945 -0.000000 0.000000
RightFoot -12.062705 -12.608626 15.139522
RightToeBase 15.000300 -0.000000 -0.000000
LeftUpLeg 6.524043 3.174532 3.618313
LeftLeg -1.428928 -0.000000 0.000000
LeftFoot -12.455151 16.613558 -18.244131
LeftToeBase 9.669133 -0.000000 -0.000000
Spine 1.227286 11.527562 0.437850
RightShoulder 16.038166 -21.482289 -14.438122
RightArm 56.122949 -46.429862 39.664752
RightForeArm 94.326154 0.000000 79.082576
RightHand -10.708377 -0.000000 -13.204630
RightHandThumb1 -24.326973 -0.000000 -32.862282
LeftShoulder -17.636163 36.475367 -2.169166
LeftArm 44.809154 21.629303 -58.101339
LeftForeArm 21.723813 -0.000000 25.955856
LeftHand -13.072333 -0.000000 -11.721247
LeftHandThumb1 -26.253704 0.000000 33.147579
Head 3.440946 -5.055478 6.373198
